<?xml version="1.0" encoding="utf-8"?>
<!-- Generator: Adobe Illustrator 19.1.0, SVG Export Plug-In . SVG Version: 6.00 Build 0)  -->
<svg version="1.1" id="Layer_1" xmlns="http://www.w3.org/2000/svg" xmlns:xlink="http://www.w3.org/1999/xlink" x="0px" y="0px"
	 viewBox="0 0 208.6 279.1" style="enable-background:new 0 0 208.6 279.1;" xml:space="preserve">
<style type="text/css">
	.st0{fill:#5CB047;}
</style>
<path class="st0" d="M157.7,247.8c3-0.6,3.6-0.3,5.1,2.1c0.3,0.4,0.5,0.9,0.7,1.3c3.9,8,6.3,16.6,8.4,25.2c0.1,0.5,0.1,1.1,0,1.7
	c2.6,0,5.1,0.4,7.6,1c-0.4-1.4-0.7-2.6-0.9-3.8c-1.6-9.8-3.7-19.5-6.1-29.1c-1.5-5.8-1.4-5.8,3-10.2c6.3-6.1,12.2-12.4,17.2-19.7
	c10.7-15.7,16.8-32.7,15.8-51.9c-0.4-7.7-1.5-15.3-3.9-22.6c-4.2-13.3-10.8-25.4-18.9-36.8c-8.4-11.9-18.4-22.5-29-32.4
	c-20.2-19-42.7-34.6-68.3-45.5C61.6,15.7,33.9,7.1,5.6,0.4C4.3,0.1,2.9,0,1.6,0C0.7,0,0,0.7,0,1.7c0,0.8,0.2,1.7,0.3,2.5
	C6.5,36.2,13.6,68,22,99.5c6.2,22.9,13,45.6,21.5,67.9c4.6,12,9.7,23.7,16,34.9c6.1,10.9,13.8,20.4,23.2,28.4
	c15.1,12.9,32.9,19.1,52.7,19.6C143,250.6,150.3,249.4,157.7,247.8z M89.6,100.3C79.5,87.2,68.9,74.4,57.4,62.4
	c-8.4-8.8-17-17.3-25.4-26c-1.2-1.3-2.9-2.3-3.2-4.2c1.4-0.9,2.1,0,2.9,0.6c4.6,3.5,9.3,7,13.7,10.7c20.2,16.7,38.8,35.1,55.4,55.3
	c14.9,18.1,28,37.5,38.6,58.5c9.3,18.6,16.2,38,20.1,58.4c0.9,4.7,1.4,9.5,2,14.2c0,0.4-0.4,1-0.7,1.2c-0.3,0.1-1.1-0.2-1.2-0.5
	c-0.7-1.6-1.2-3.2-1.8-4.8c-6.2-19.8-14.4-38.7-24.1-57C120.9,144.6,106.2,121.8,89.6,100.3z"/>
</svg>
